<?xml version="1.0" encoding="UTF-8"?>
<svg width="485px" height="485px" viewBox="0 0 485 485" version="1.1" xmlns="http://www.w3.org/2000/svg" xmlns:xlink="http://www.w3.org/1999/xlink">
    <!-- Generator: Sketch 48.2 (47327) - http://www.bohemiancoding.com/sketch -->
    <title>N</title>
    <desc>Created with Sketch.</desc>
    <defs></defs>
    <g id="Page-1" stroke="none" stroke-width="1" fill="none" fill-rule="evenodd">
        <g id="N">
            <g id="Logo-2" transform="translate(93.000000, 93.000000)">
                <path d="M24.9006785,170 L55.4006785,170 C70.3123667,170 82.4006785,182.088312 82.4006785,197 L82.4006785,300 C81.0774476,290.694117 74.3337471,280.267928 62.1695771,268.721434 C39.8875365,246.030691 21.4994957,227.195364 7.0054549,212.215451 L7.00543142,212.215474 C-2.55727757,202.332201 -2.29740989,186.568119 7.58586214,177.00541 C12.2298453,172.512054 18.4387261,170 24.9006785,170 Z" id="Rectangle-Copy" fill="#000000" transform="translate(41.200339, 235.000000) rotate(-180.000000) translate(-41.200339, -235.000000) "></path>
                <path d="M300,214.409163 L300,273 C300,287.911688 287.911688,300 273,300 L214.409163,300 C195.578792,300 177.519664,292.519664 164.204581,279.204581 L20.7954185,135.795419 C7.48033567,122.480336 5.68434189e-14,104.421208 5.68434189e-14,85.5908371 L5.68434189e-14,27 C5.68434189e-14,12.0883118 12.0883118,-5.68434189e-14 27,-5.68434189e-14 L85.5908371,-1.13686838e-13 C104.421208,-1.13686838e-13 122.480336,7.48033567 135.795419,20.7954185 L279.204581,164.204581 C292.519664,177.519664 300,195.578792 300,214.409163 Z M67.2686377,44.4341139 C60.8249145,37.9903907 50.3776336,37.990332 43.9339828,44.4339828 C37.490332,50.8776336 37.4903907,61.3249145 43.9341139,67.7686377 L232.731362,256.565886 C239.175086,263.009609 249.622366,263.009668 256.066017,256.566017 C262.509668,250.122366 262.509609,239.675086 256.065886,233.231362 L67.2686377,44.4341139 Z" id="Combined-Shape" fill="#110C0C"></path>
                <path d="M242.900678,0 L273.400678,-3.55271368e-15 C288.312367,-6.29194637e-15 300.400678,12.0883118 300.400678,27 L300.400678,130 C299.077448,120.694117 292.333747,110.267928 280.169577,98.7214338 C257.887536,76.0306914 239.499496,57.1953638 225.005455,42.2154508 L225.005431,42.2154735 C215.442722,32.3322015 215.70259,16.5681192 225.585862,7.00541019 C230.229845,2.5120542 236.438726,1.18704138e-15 242.900678,0 Z" id="Rectangle" fill="#000000" transform="translate(259.200339, 65.000000) rotate(-360.000000) translate(-259.200339, -65.000000) "></path>
            </g>
        </g>
    </g>
</svg>